<svg width="58" height="66" viewBox="0 0 58 66" fill="none" xmlns="http://www.w3.org/2000/svg">
<rect width="58" height="66" rx="5" fill="#171717" fill-opacity="0.55"/>
<path d="M27.2027 18.3653V21.6956C27.2114 22.1012 27.0975 22.5 26.8759 22.8398C26.6542 23.1796 26.3352 23.4446 25.9604 23.6001C25.7115 23.7037 25.4446 23.7574 25.175 23.7579H21.8384C21.3001 23.7579 20.7836 23.5452 20.4014 23.1662C20.0192 22.7871 19.8023 22.2724 19.7979 21.7341V18.4038C19.7975 18.136 19.8501 17.8707 19.9526 17.6232C20.055 17.3757 20.2054 17.1508 20.395 16.9616C20.5846 16.7724 20.8097 16.6224 21.0574 16.5204C21.3051 16.4184 21.5705 16.3664 21.8384 16.3672H25.175C25.7067 16.3704 26.2161 16.5811 26.5949 16.9543C26.9736 17.3275 27.1917 17.8338 27.2027 18.3653ZM27.2027 27.9839V31.3142C27.2034 31.853 26.9902 32.3701 26.6101 32.7519C26.2299 33.1337 25.7138 33.3491 25.175 33.3508H21.8384C21.2978 33.3508 20.7794 33.1364 20.3969 32.7545C20.0143 32.3727 19.7989 31.8547 19.7979 31.3142V27.9839C19.8006 27.4451 20.017 26.9294 20.3995 26.55C20.7821 26.1706 21.2995 25.9584 21.8384 25.9601H25.175C25.7121 25.9601 26.2273 26.1732 26.6074 26.5526C26.9876 26.9321 27.2017 27.4468 27.2027 27.9839ZM36.879 18.3653V21.6956C36.8867 22.2301 36.6836 22.7461 36.3138 23.132C35.9439 23.518 35.437 23.7428 34.9027 23.7579H31.5789C31.0406 23.7579 30.5241 23.5452 30.1419 23.1662C29.7597 22.7871 29.5428 22.2724 29.5384 21.7341V18.4038C29.538 18.136 29.5906 17.8707 29.6931 17.6232C29.7955 17.3757 29.9459 17.1508 30.1355 16.9616C30.3251 16.7724 30.5502 16.6224 30.7979 16.5204C31.0456 16.4184 31.311 16.3664 31.5789 16.3672H34.9027C35.4254 16.3835 35.9219 16.6 36.2897 16.9718C36.6575 17.3436 36.8684 17.8425 36.879 18.3653ZM36.879 28.0096V31.3399C36.8799 31.8699 36.6738 32.3794 36.3047 32.7598C35.9356 33.1402 35.4325 33.3615 34.9027 33.3765H31.5789C31.0383 33.3765 30.5199 33.1621 30.1374 32.7802C29.7548 32.3984 29.5394 31.8804 29.5384 31.3399V28.0096C29.5414 27.4709 29.7579 26.9554 30.1404 26.576C30.5229 26.1967 31.0401 25.9844 31.5789 25.9858H34.9027C35.4298 26.0024 35.93 26.2224 36.2985 26.5997C36.6669 26.977 36.875 27.4823 36.879 28.0096Z" fill="#8FC346"/>
<path d="M40.2042 21.8753C39.9502 21.8719 39.7075 21.7696 39.5277 21.5901C39.348 21.4106 39.2454 21.168 39.2417 20.914V16.9562C39.2509 16.5552 39.1783 16.1565 39.0282 15.7845C38.8782 15.4125 38.6539 15.075 38.369 14.7925C37.8052 14.235 37.0445 13.9219 36.2516 13.9212H32.3374C32.0826 13.9212 31.8381 13.8201 31.6577 13.6401C31.4773 13.4602 31.3756 13.216 31.3749 12.9612C31.3752 12.7062 31.4768 12.4617 31.6572 12.2815C31.8377 12.1012 32.0823 12 32.3374 12H36.2901C37.5905 12.0328 38.8259 12.5758 39.7294 13.5118C40.1865 13.9665 40.5488 14.5073 40.7955 15.1029C41.0423 15.6985 41.1684 16.3372 41.1667 16.9819V20.9397C41.1597 21.1903 41.0552 21.4282 40.8755 21.6029C40.6957 21.7777 40.4549 21.8753 40.2042 21.8753ZM36.2516 37.6667H32.3374C32.0826 37.6667 31.8381 37.5656 31.6577 37.3857C31.4773 37.2057 31.3756 36.9616 31.3749 36.7067C31.3752 36.4517 31.4768 36.2072 31.6572 36.027C31.8377 35.8468 32.0823 35.7455 32.3374 35.7455H36.2901C36.8819 35.7408 37.4589 35.5598 37.9474 35.2256C38.4359 34.8914 38.8137 34.4192 39.0325 33.8693C39.1777 33.505 39.2488 33.1154 39.2417 32.7233V28.804C39.2421 28.5489 39.3436 28.3044 39.5241 28.1242C39.7045 27.944 39.9492 27.8428 40.2042 27.8428C40.4593 27.8428 40.7039 27.944 40.8844 28.1242C41.0648 28.3044 41.1664 28.5489 41.1667 28.804V32.7233C41.1691 33.695 40.882 34.6454 40.3418 35.4532C39.8017 36.261 39.0331 36.8895 38.1342 37.2586C37.5374 37.5037 36.8971 37.6307 36.2516 37.6282V37.6667ZM24.3807 37.6667H20.428C19.7791 37.6662 19.1365 37.5379 18.5372 37.2891C17.9378 37.0403 17.3933 36.6758 16.9348 36.2165C16.4773 35.7577 16.115 35.2131 15.8688 34.6138C15.6226 34.0145 15.4972 33.3724 15.5 32.7246V28.8053C15.5004 28.5502 15.6019 28.3057 15.7824 28.1255C15.9629 27.9453 16.2075 27.844 16.4625 27.844C16.7176 27.844 16.9622 27.9453 17.1427 28.1255C17.3231 28.3057 17.4247 28.5502 17.425 28.8053V32.7246C17.4281 33.5183 17.7461 34.2784 18.3091 34.8378C18.8722 35.3973 19.6343 35.7104 20.428 35.7083H24.3807C24.6358 35.7083 24.8804 35.8095 25.0609 35.9898C25.2413 36.17 25.3429 36.4145 25.3432 36.6695C25.3434 36.7958 25.3186 36.921 25.2702 37.0377C25.2219 37.1544 25.151 37.2604 25.0615 37.3496C24.9721 37.4388 24.8659 37.5094 24.7491 37.5575C24.6322 37.6055 24.507 37.63 24.3807 37.6295V37.6667ZM16.4625 21.8753C16.2085 21.8719 15.9658 21.7696 15.7861 21.5901C15.6063 21.4106 15.5037 21.168 15.5 20.914V16.9562C15.5035 15.6629 16.0205 14.4239 16.9374 13.5118C17.8629 12.5948 19.1124 12.0793 20.4152 12.077H24.3679C24.6229 12.077 24.8676 12.1782 25.048 12.3585C25.2285 12.5387 25.33 12.7832 25.3304 13.0382C25.3297 13.293 25.228 13.5372 25.0476 13.7171C24.8671 13.8971 24.6227 13.9982 24.3679 13.9982H20.4152C19.6214 13.9958 18.8591 14.3087 18.2959 14.8683C17.7328 15.4278 17.4149 16.1881 17.4122 16.9819V20.9397C17.4053 21.1881 17.3026 21.4241 17.1256 21.5985C16.9486 21.7729 16.711 21.872 16.4625 21.8753Z" fill="#8FC346"/>
<path d="M14.2617 58H12.8672V49.4336H17.707V50.6172H14.2617V53.2891H17.4844V54.4668H14.2617V58ZM25.9922 49.4336V54.9766C25.9922 55.5742 25.8652 56.1094 25.6113 56.582C25.3613 57.0547 24.9824 57.4297 24.4746 57.707C23.9668 57.9805 23.3281 58.1172 22.5586 58.1172C21.4609 58.1172 20.625 57.8301 20.0508 57.2559C19.4805 56.6777 19.1953 55.9102 19.1953 54.9531V49.4336H20.6016V54.8301C20.6016 55.5449 20.7695 56.0723 21.1055 56.4121C21.4414 56.752 21.9434 56.9219 22.6113 56.9219C23.0723 56.9219 23.4473 56.8418 23.7363 56.6816C24.0293 56.5176 24.2441 56.2793 24.3809 55.9668C24.5215 55.6504 24.5918 55.2695 24.5918 54.8242V49.4336H25.9922ZM35.332 58H33.6035L29.4082 51.1621H29.3555C29.3711 51.3926 29.3848 51.6367 29.3965 51.8945C29.4121 52.1523 29.4238 52.418 29.4316 52.6914C29.4434 52.9648 29.4531 53.2422 29.4609 53.5234V58H28.1836V49.4336H29.9004L34.0898 56.2246H34.1309C34.123 56.0254 34.1133 55.7969 34.1016 55.5391C34.0898 55.2812 34.0781 55.0156 34.0664 54.7422C34.0586 54.4648 34.0527 54.1973 34.0488 53.9395V49.4336H35.332V58ZM44.5371 53.6348C44.5371 54.5996 44.3574 55.4062 43.998 56.0547C43.6387 56.6992 43.1172 57.1855 42.4336 57.5137C41.75 57.8379 40.9258 58 39.9609 58H37.582V49.4336H40.2188C41.1055 49.4336 41.8711 49.5938 42.5156 49.9141C43.1602 50.2305 43.6582 50.7012 44.0098 51.3262C44.3613 51.9473 44.5371 52.7168 44.5371 53.6348ZM43.0723 53.6758C43.0723 52.9727 42.9609 52.3945 42.7383 51.9414C42.5195 51.4883 42.1953 51.1523 41.7656 50.9336C41.3398 50.7109 40.8145 50.5996 40.1895 50.5996H38.9883V56.8223H39.9844C41.0195 56.8223 41.793 56.5586 42.3047 56.0312C42.8164 55.5039 43.0723 54.7188 43.0723 53.6758Z" fill="#E3E3E3"/>
</svg>
